<svg xmlns="http://www.w3.org/2000/svg" width="480" height="480" viewBox="0 0 480 480">
  <g fill="none" fill-rule="evenodd">
    <rect width="480" height="480" fill="#493B69"/>
    <path fill="#FFE2A4" fill-rule="nonzero" d="M157.500842,254 C160.198901,255.262879 163.066037,255.708401 165.962634,256.033116 L167.049967,256.150581 L168.138425,256.264883 L169.226373,256.384185 C171.400669,256.63323 173.562087,256.961247 175.651726,257.662094 C176.470437,257.868342 177.287947,258.084582 178.105323,258.30462 L181.376648,259.190336 C184.379347,259.993883 187.399381,260.737422 190.489353,261.115543 C191.612414,261.257744 192.756034,261.19742 193.902643,261.098524 L195.515221,260.950913 L196.051746,260.907921 C197.749101,260.784618 199.428844,260.802106 201.033512,261.496613 L201.286248,261.611976 C201.634521,261.774491 201.989972,261.933023 202.349012,262.091075 L203.68581,262.679666 L204.189733,262.908399 L204.690423,263.144197 C206.600786,264.064315 208.392393,265.18651 209.51897,267.043963 C211.463708,270.576553 211.07476,274.778248 210.20323,278.569847 C209.966759,279.651042 209.763705,280.754078 209.567886,281.865809 L209.159001,284.204909 L208.956445,285.318553 L208.814485,286.059371 C208.014559,290.128357 206.872867,294.093412 204.109719,297.311999 C199.514376,295.088842 195.019871,292.671428 190.474948,290.35474 C183.848435,286.455221 175.305995,285.68539 168.103263,288.376201 C168.132074,290.074147 168.85955,291.621004 169.803108,293.023967 C170.804048,294.585694 171.77521,296.175955 172.741849,297.773293 L174.45591,300.607925 L175.119257,301.696493 L175.787607,302.781814 C179.144826,308.197781 182.75632,313.435287 187.622666,317.644177 C190.826381,320.263042 194.101786,322.794384 197.399198,325.29872 L200.229782,327.440091 L204.480659,330.645871 C210.143807,334.925809 215.76734,339.253411 221.100963,343.933553 C221.801592,345.022567 222.124227,346.281042 222.407763,347.563031 L222.575905,348.333878 C222.857358,349.619435 223.167492,350.899316 223.845204,352.027573 C224.411818,352.953289 225.135293,353.76389 225.881176,354.559569 L226.442689,355.155096 C226.62986,355.353716 226.81633,355.552968 227,355.75442 C226.93862,356.079744 226.889658,356.411598 226.844323,356.746232 L226.744734,357.502274 L226.674156,358.006834 C226.499158,359.181905 226.234005,360.33368 225.501832,361.301521 C224.597612,362.500266 223.6535,363.670275 222.696583,364.831 L221.7364,365.989351 L220.293286,367.724728 L219.397489,368.813688 C217.317831,371.362101 215.325411,373.972744 213.703757,376.849234 C212.891049,378.07233 212.086344,379.301022 211.284507,380.531713 L208.882462,384.226183 L207.505733,386.334387 C204.744,390.544976 201.921117,394.712607 198.830117,398.692295 C198.550373,399.04478 198.273763,399.418358 197.995632,399.801939 L197.17799,400.935913 L196.784554,401.469699 L196.516813,401.821951 L196.243805,402.169158 L196.100432,402.345964 L196.100432,402.345964 L195.808417,402.693029 C194.477579,404.232892 192.911658,405.455971 190.759102,405.524378 L190.525367,405.527245 C184.028503,405.591998 177.538842,405.851006 171.049181,405.9949 C165.300964,406.043737 159.403746,405.774606 153.981446,403.744256 L153.474515,403.548707 C153.081516,403.400317 152.692062,403.24105 152.303969,403.077879 L151.14159,402.583622 C149.849741,402.036924 148.548747,401.524303 147.15772,401.303966 C146.016199,401.117466 144.859169,401.061103 143.70037,401.029903 L142.32087,400.998088 L141.556878,400.976242 C139.903357,400.918863 138.263567,400.780433 136.677745,400.253542 C132.52417,398.910534 128.604283,397.014335 124.728147,395.0318 L123.276275,394.285214 L121.101289,393.162127 C120.617872,392.913264 120.13421,392.665331 119.649934,392.419241 L118.923012,392.051602 C117.570535,391.345215 116.122831,390.877233 114.665209,390.436343 L113.311382,390.028466 L112.550894,389.791074 C111.28744,389.385833 110.047905,388.923268 108.889054,388.262778 L108.543875,388.058552 C106.642354,386.979349 105.65558,384.633882 106.109352,382.518645 C106.708079,379.16952 107.339894,375.820394 108.096476,372.500188 L108.428632,371.079097 C109.055269,368.244391 111.316927,365.747836 114.284452,365.359323 C115.777939,364.991315 116.970747,365.650564 118.098953,366.507538 L118.405222,366.745537 L118.709351,366.989602 L119.315448,367.480968 L119.619545,367.720791 C120.026182,368.035458 120.438466,368.326411 120.867749,368.553763 C121.477328,368.733251 122.111328,368.828078 122.751376,368.903494 L123.713689,369.010219 C124.782863,369.130753 125.84332,369.287999 126.810003,369.784054 C127.948882,370.524683 128.964417,371.423894 129.963717,372.34456 L130.818783,373.135759 C131.96023,374.189167 133.120443,375.219426 134.459304,376.021845 C135.320802,376.524188 136.243367,376.358197 137.157683,376.072954 L137.479927,375.968223 L137.800809,375.858953 C138.174113,375.73091 138.543253,375.604554 138.903389,375.518217 C141.784482,374.417431 144.860048,373.964165 147.95002,373.892219 C148.44941,373.85025 148.954801,373.829865 149.463061,373.81794 L150.993308,373.794424 L151.606011,373.781593 C153.442535,373.731346 155.259352,373.55263 156.910218,372.633149 C159.06786,371.557755 161.393115,371.489661 163.736634,371.59989 L164.406579,371.635521 L166.08071,371.738858 C166.749025,371.778002 167.414767,371.809146 168.074452,371.812955 L167.770794,370.774469 C167.288831,369.158739 166.734744,367.557934 165.726362,366.201101 C165.37616,365.735928 165.037092,365.258136 164.700446,364.776833 L163.910333,363.644734 L163.519728,363.094477 C162.273611,361.36026 160.925369,359.719877 159.056632,358.610709 C158.354366,357.873254 157.572069,357.228231 156.778518,356.598613 L155.825257,355.845536 C155.033707,355.215917 154.258413,354.570894 153.568151,353.833439 C152.291827,351.876485 151.226399,349.797509 150.194852,347.699194 L149.039322,345.335845 C147.879415,342.975167 146.678378,340.638748 145.184171,338.472788 C143.899492,336.695989 142.298337,335.238767 140.630687,333.84888 L139.912638,333.256602 L139.08765,332.584148 C137.849739,331.575929 136.617242,330.562377 135.489294,329.443459 L134.857596,328.843552 L134.229781,328.235191 C133.708489,327.724667 133.19225,327.205212 132.683585,326.67651 L132.076986,326.037611 C131.675225,325.608693 131.278958,325.173777 130.889476,324.732703 L130.310503,324.066454 C126.677944,319.817374 123.715971,315.005298 122.53158,309.4926 L122.352928,308.524056 L122.352928,308.524056 L122.234758,307.822054 C121.846477,305.376847 121.71407,302.824476 122.884514,300.585581 C123.722305,298.96867 124.847408,297.551058 126.011995,296.15967 L127.064093,294.909828 C127.763676,294.075089 128.450709,293.231099 129.07166,292.340472 C130.590782,290.038174 132.016893,287.670468 133.410958,285.280094 L134.244039,283.843491 L135.072355,282.403499 L136.726398,279.521552 L137.141503,278.802152 L137.976187,277.366452 L138.362786,276.707868 L138.362786,276.707868 L139.142459,275.395207 C142.019173,270.594597 145.108254,265.942025 148.915186,261.791843 C151.515372,258.928359 154.353249,256.266326 157.500842,254 Z M375.308323,250 C376.861915,252.34006 377.14227,254.973538 377.164861,257.654455 L377.165961,258.273858 L377.1518,259.515028 L377.142086,260.135451 C377.126743,261.168838 377.11949,262.19804 377.178104,263.209054 C377.313797,263.650954 377.488493,264.089876 377.684373,264.527511 L377.857042,264.902351 L378.037594,265.276796 L378.695588,266.58767 L378.880747,266.963271 L379.060071,267.33978 L379.146767,267.528449 L379.146767,267.528449 L379.312665,267.906763 C380.00721,269.5492 380.361831,271.233863 379.463392,273.047404 C374.935799,274.815288 370.150306,275.778282 365.314665,275.979505 C363.762603,275.97699 362.295666,276.394401 360.853039,276.913757 L360.236081,277.141652 L360.236081,277.141652 L358.831362,277.679592 L358.2886,277.882965 C356.477903,278.549088 354.64825,279.076057 352.677523,278.825368 L351.758631,278.71746 L351.140726,278.648944 L350.363708,278.570242 L350.363708,278.570242 L349.582927,278.502464 C346.245678,278.241467 342.846247,278.372617 339.904267,280.097383 C338.769735,280.719722 338.406429,281.850249 338.252264,283.051074 L338.214982,283.379986 L338.214982,283.379986 L338.18316,283.740454 L338.110758,284.807028 L338.083347,285.149065 L338.048813,285.480089 L337.506692,297.601914 C337.207613,304.337525 336.924974,311.074891 336.723489,317.812256 C336.827878,320.327026 336.947727,322.841466 337.073098,325.355858 L337.455838,332.899177 C337.793105,339.604727 338.098961,346.311953 338.184928,353.026219 C338.152018,354.253992 338.074544,355.486235 337.987526,356.720316 L337.841482,358.752484 L337.775553,359.726644 C337.556267,363.136153 337.480733,366.543386 338.285222,369.892989 L338.358463,370.140957 L338.430132,370.398916 L338.532447,370.801775 L338.595705,371.079089 L338.653806,371.361897 L338.705727,371.648914 L338.728053,371.787156 L338.728053,371.787156 L338.767324,372.065082 C338.773234,372.111517 338.778814,372.157993 338.784046,372.204486 L338.811104,372.483476 C338.814867,372.529948 338.818244,372.576391 338.821216,372.622782 L338.834051,372.900313 C338.880153,374.559505 338.353893,376.090544 336.386785,376.403979 L335.585988,376.569611 L334.780899,376.727833 C330.880236,377.47089 326.850315,377.872207 322.997433,376.741745 C320.471121,376.040606 317.968219,376.295916 315.470169,376.736185 L314.788988,376.860265 L314.788988,376.860265 L312.560325,377.287732 C311.445925,377.496393 310.331054,377.682209 309.214065,377.776605 C304.625867,378.331702 300.082192,377.770224 295.565844,376.991045 L294.437316,376.792235 L291.580392,376.268599 C290.414764,376.053835 289.250628,375.842232 288.087687,375.649394 C282.69326,374.636094 277.263015,373.824017 271.89008,372.695733 C271.456408,364.437648 271.682701,356.179563 271.986314,347.921478 L272.173099,342.966627 L272.294121,339.663393 C272.449011,335.259081 272.570652,330.854769 272.570652,326.450457 C272.53931,324.852953 272.538439,323.254201 272.548218,321.655046 L272.589681,316.857218 C272.621197,312.379694 272.580801,307.905634 272.033358,303.453583 C271.88418,301.929195 271.843874,300.399435 271.823305,298.869359 L271.796114,296.574641 C271.769147,294.790659 271.708384,293.009687 271.472284,291.239753 L271.359951,290.481909 C270.991521,288.067237 270.669876,285.647872 270.361598,283.226496 L269.676431,277.776136 L268.156478,277.79758 L265.125513,277.848059 C264.116948,277.862662 263.109989,277.872435 262.104175,277.869561 C260.662344,277.845353 259.258614,278.116729 257.862504,278.434776 L256.293488,278.799142 C254.898807,279.117189 253.500316,279.388565 252.067534,279.364357 C248.886757,278.949336 246.213722,277.260952 243.737135,275.336087 L243.189889,274.904868 L242.648352,274.468392 L241.845089,273.809353 L241.314501,273.370797 C241.06854,272.932419 240.912526,272.454116 240.77535,271.968893 L240.574827,271.239993 C240.370656,270.514154 240.128873,269.809875 239.60949,269.238546 C239.524546,269.100976 239.429369,268.965605 239.328865,268.831094 L239.122211,268.562818 L238.804687,268.159486 C238.351322,267.57287 237.951556,266.960419 238.004773,266.21302 C238.649526,264.947394 239.557397,263.870302 240.504822,262.821553 L241.362147,261.881006 C241.837666,261.357925 242.306305,260.829915 242.74012,260.276952 L242.662934,259.836107 L242.386214,258.413254 L242.326616,258.083938 L242.271453,257.752317 L242.222454,257.41953 C241.973085,255.588082 242.081882,253.755394 243.843362,252.774222 C246.150142,252.09703 248.542083,251.957425 250.947606,251.908859 L251.979167,251.892318 L253.526888,251.87132 C254.729934,251.851073 255.929985,251.813716 257.118092,251.70343 C260.957624,251.376443 264.734619,251.890087 268.491944,252.586 L269.564967,252.789223 L273.397706,253.545409 C274.358814,253.732517 275.319858,253.912741 276.281559,254.074983 C279.25906,254.739736 282.289731,254.831813 285.326348,254.838972 L286.5412,254.838462 L287.756015,254.835832 C288.768159,254.834683 289.779564,254.838551 290.788482,254.8655 C298.461032,255.088282 306.198058,254.858314 313.755985,253.413823 C317.096839,252.737298 320.476093,252.752492 323.862314,252.836008 L325.313886,252.874166 C328.459486,252.95803 331.607221,253.024016 334.731922,252.572999 C335.569964,252.535033 336.430195,252.445131 337.300343,252.344566 L338.348496,252.221411 L339.138024,252.131861 L339.664897,252.077216 L340.1915,252.028927 C342.998281,251.791856 345.768402,251.910483 348.099783,253.737216 C350.766614,252.331099 353.674375,252.090511 356.621088,252.066962 L357.683238,252.066222 L359.520851,252.08034 C360.867184,252.088051 362.207859,252.076294 363.523686,251.954958 C365.280402,251.98308 366.973469,251.614516 368.658234,251.190069 L370.173775,250.802181 C371.85854,250.374877 373.551607,249.993932 375.308323,250 Z M225.982882,109.989723 L225.976395,110.3681 L225.969138,111.128363 L225.968074,111.892817 L225.993862,115.368959 L225.996154,116.145957 L225.993475,116.923326 C225.991508,117.189849 225.988361,117.456334 225.983723,117.722674 L225.965026,118.521155 C225.842094,122.643292 225.286121,126.705069 223.137138,130.309681 C222.11196,131.311524 220.763006,131.717284 219.374303,131.984436 L218.910319,132.06898 L218.445729,132.147023 L217.960911,132.22591 C217.47794,132.304739 217.00185,132.385556 216.544736,132.487843 C215.304068,132.734912 214.043268,132.905645 212.779747,133.065474 L211.40317,133.238391 L210.546752,133.350056 C207.980366,133.695511 205.445227,134.15556 203.088227,135.282195 C199.409752,136.938057 195.448535,137.631367 191.475388,138.119126 L190.438823,138.242203 L190.438823,138.242203 L187.20783,138.599593 L185.466617,138.708678 L184.608278,138.756358 C181.171736,138.933127 177.702938,138.917889 174.416282,137.825773 C173.969996,137.731035 173.522088,137.611375 173.072715,137.484175 L172.107591,137.206398 C170.559989,136.76376 168.996498,136.378441 167.423474,136.751022 C166.453203,136.888351 166.264631,137.800584 166.261677,138.645012 L166.266527,138.916884 L166.266527,138.916884 L166.279943,139.177456 L166.293756,139.373414 C166.362609,140.814377 166.684511,142.217991 167.046953,143.61447 L167.37836,144.87019 C167.893056,146.823075 168.362257,148.779741 168.202836,150.823094 C168.080592,152.450244 167.798382,154.065465 167.495411,155.678858 L167.155191,157.482685 L167.003702,158.318963 C166.561896,160.828627 166.253413,163.347189 166.601211,165.912598 C167.394873,165.967313 168.191195,165.998045 168.98887,166.02151 L170.585638,166.063704 C171.917138,166.099044 173.249981,166.145151 174.578124,166.279408 L176.283999,166.476425 L177.201236,166.586828 L177.815713,166.657423 L178.407039,166.719116 C180.6756,166.940139 182.960093,166.960408 185.091398,165.991413 L185.526182,165.843451 L186.286829,165.576298 L186.759662,165.41524 L187.079783,165.311928 L187.402727,165.214318 L187.727559,165.12451 C189.300623,164.712686 190.906925,164.647974 192.069906,165.998578 C197.346688,172.697859 197.196535,183.251913 191.247643,189.506964 C189.13836,189.241859 187.021928,189.184539 184.905495,189.172896 L183.318282,189.170195 C181.731292,189.170992 180.145308,189.174687 178.563346,189.112889 C177.615498,189.080554 176.669926,188.876081 175.726307,188.630977 L175.211798,188.494044 L174.183897,188.214974 L173.732073,188.097756 C172.000595,187.661708 170.274967,187.402194 168.553191,188.138448 L168.155796,188.318984 L167.883746,188.448935 L167.609718,188.587416 L167.336899,188.735164 L167.068477,188.892914 C166.052025,189.51773 165.202733,190.379198 165.328491,191.663631 C164.994486,194.264003 165.495151,196.739763 166.185373,199.187831 L166.38718,199.88661 L166.59596,200.584383 L166.958388,201.772884 C167.401052,203.225618 167.830235,204.680656 168.109884,206.158439 C168.403754,208.365978 168.718859,210.570937 169.037826,212.775444 L169.675758,217.184488 C170.203079,220.859241 170.70895,224.536681 171.112931,228.226659 L171.122835,228.655866 L171.154364,229.537813 L171.218813,231.136463 L171.238158,231.834624 L171.244901,232.301978 L171.245134,232.76973 C171.244033,232.918002 171.241745,233.066187 171.238076,233.214147 L171.222729,233.657209 C171.100135,236.383529 170.438083,238.984882 168.002633,240.57913 C164.291725,242.420537 160.323413,243.803383 156.369402,245 C154.922904,245.003376 153.556543,244.577412 152.197578,244.095943 L151.085871,243.697212 C149.972864,243.301263 148.851527,242.936417 147.682017,242.807447 C143.891725,242.473108 140.077863,242.824526 136.263249,243.28954 L134.991715,243.447967 L132.176019,243.805285 L131.238785,243.919486 L130.301925,244.028137 C124.994253,244.624531 119.708205,244.862553 114.505503,243.194357 C113.504487,243.026135 112.539965,243.261538 111.581379,243.559598 L110.719429,243.835563 C109.761654,244.140531 108.800647,244.405866 107.805849,244.290603 C106.225674,243.889363 105.203208,242.119606 105.825268,240.586295 C105.891269,240.015614 106.062209,239.429483 106.249025,238.839207 L106.503377,238.038836 L106.622233,237.63961 L106.622233,237.63961 L106.727612,237.241447 C106.998124,236.128799 107.038526,235.037743 106.247124,234.044644 C105.444014,232.883145 105.239205,231.542046 105.168628,230.178497 L105.148537,229.696568 L105.109807,228.254949 C105.101511,228.016735 105.090594,227.780125 105.074506,227.545983 C104.995855,225.941022 104.929158,224.334605 104.868382,222.727362 L104.739083,219.109939 L104.614497,215.491323 C104.303272,206.645659 103.897419,197.803594 102.393215,189.069899 C102.031155,187.86052 102.386225,186.796948 102.901516,185.764781 L103.068916,185.439743 L103.24307,185.115993 L103.469233,184.702913 C103.533206,184.585828 103.596761,184.468638 103.659067,184.351171 L103.841403,183.997771 C104.313198,183.052248 104.651761,182.078092 104.430996,180.987771 C103.770326,174.532817 102.96601,168.095417 102.135768,161.660826 L101.063294,153.388167 C100.738541,151.08219 100.690171,148.754562 100.687542,146.42481 L100.691728,143.883358 C100.691927,140.496136 100.611453,137.119442 99.7405235,133.813369 C97.9172453,126.791663 96.2369692,119.719802 95,112.569125 C100.080342,111.989891 105.183501,111.83365 110.289662,111.726749 L114.119536,111.649985 C115.821678,111.61479 117.523602,111.574698 119.224576,111.515869 C120.715164,111.512497 122.174083,111.263185 123.628159,110.974018 L125.263366,110.642759 C126.354028,110.425201 127.447624,110.228697 128.555471,110.140188 C137.184565,111.614573 145.855697,111.411267 154.534676,110.827613 L156.214567,110.710246 L157.894599,110.585471 L159.574717,110.455378 L164.219957,110.085292 C169.479701,109.668929 174.737658,109.29008 179.986218,109.237397 C180.857982,109.25531 181.731332,109.30025 182.605506,109.354842 L185.229736,109.530194 C188.029924,109.711051 190.830737,109.812802 193.60718,109.266057 L194.617206,109.087902 L196.639228,108.736887 C205.069793,107.291842 213.568757,106.089144 222.136122,106.005979 C224.238255,105.877009 226.204535,107.854551 225.982882,109.989723 Z M352.550804,92.8501944 L353.176592,93.0361564 L354.246171,93.3640818 C355.886562,93.8687485 357.532109,94.3596599 359.230449,94.5296962 C364.181865,94.956739 369.148338,95.0398332 374.116555,95.0449028 L376.600747,95.0421666 L380.504175,95.0293604 C381.834693,95.0258875 383.164926,95.0249934 384.494619,95.0317886 L385.16166,95.062054 L385.845183,95.0897191 L386.306337,95.1124 L386.528079,95.1256691 L386.528079,95.1256691 L386.97183,95.1587824 C388.523875,95.2926465 390.052623,95.6335475 391.182618,96.7604211 C393.94521,99.8454204 395.064059,103.883965 395.701266,107.898152 L395.808951,108.606087 L395.859488,108.959491 L395.859488,108.959491 L395.954835,109.664427 L396,110.015661 L396,110.015661 L396,110.524926 C395.573875,113.37968 395.638877,116.277471 395.191084,119.117879 C395.010523,120.487874 393.934376,121.872215 392.417659,121.635514 C387.338333,121.676769 382.292576,121.208158 377.25664,120.619322 L375.242733,120.378299 L375.242733,120.378299 L369.895835,119.717576 C367.757234,119.456858 365.618315,119.208734 363.477256,119.003115 C360.389199,118.898236 357.352552,119.322158 354.326582,119.851044 L353.116667,120.067191 L353.116667,120.067191 L351.831732,120.302373 C349.690315,120.695189 347.548634,121.082188 345.392213,121.31274 C344.836084,121.422125 344.262801,121.482645 343.684778,121.530276 L342.526091,121.619014 C341.175499,121.727365 339.844159,121.896124 338.689769,122.582317 C338.342007,125.064447 338.219478,127.566911 338.139217,130.074677 L338.053995,133.001925 C337.991447,135.093272 337.90884,137.18424 337.700292,139.266131 L337.693524,139.564786 L337.673145,140.167535 L337.587554,142.007802 L337.562092,142.627642 L337.544813,143.202559 L337.544813,143.202559 L337.53633,143.777391 C337.524091,145.979449 337.764655,148.157262 338.935333,150.053945 C341.016846,150.953407 343.216338,151.518728 345.43888,152.017219 L346.652891,152.284103 L347.86805,152.547372 C348.880211,152.767934 349.890001,152.994772 350.888506,153.252991 C358.73533,154.403462 366.645656,154.389866 374.561831,154.209413 L377.659635,154.132497 L380.757269,154.051826 L382.821884,154.002516 C385.23027,153.948986 387.63734,153.912129 390.041469,153.920056 L390.202538,154.427635 L390.517488,155.446937 C391.755511,159.53499 392.711373,163.751504 392.634333,168.036026 C392.345435,172.425748 390.799828,176.887198 387.809729,180.17949 C385.833915,180.564635 383.82349,180.48461 381.813667,180.337035 L380.42278,180.228963 L380.42278,180.228963 L379.496911,180.159402 C378.726084,180.105281 377.957349,180.06379 377.192711,180.057553 C372.57958,179.662765 367.972366,179.920204 363.369176,180.248858 L360.780293,180.437408 C359.054637,180.563008 357.329497,180.683304 355.604774,180.767655 C354.052976,180.876271 352.49941,180.951512 350.94576,181.019141 L347.450615,181.169329 C344.733164,181.293059 342.019324,181.452653 339.318123,181.786186 C339.260343,185.573397 339.072559,189.360608 339.072559,193.14782 L339.088984,193.78496 L339.104776,194.111647 C339.1742,195.259827 339.410773,196.441725 340.399513,197.139894 L340.545942,197.236286 C344.754142,200.099126 350.120328,200.047074 354.979543,198.997376 L355.571902,198.863986 C355.768435,198.817948 355.96401,198.770377 356.158514,198.721406 L356.7387,198.570418 C358.591261,198.041069 360.492087,197.824004 362.402346,197.657775 L364.314311,197.498809 C366.014074,197.355354 367.711063,197.183208 369.378007,196.798749 L370.571558,196.556451 C372.099734,196.254666 373.67808,196.036046 375.170421,196.626603 C378.232745,197.795761 380.442818,200.736588 380.998948,203.921288 C382.03176,210.003779 381.670637,216.487944 378.998326,222.14007 L378.85463,222.428864 L378.702629,222.720048 C378.15335,223.74114 377.425376,224.737654 376.250657,224.987035 L376.087674,225.016343 C374.24672,225.376005 372.413551,225.206878 370.580215,224.948294 L369.734019,224.824196 L368.887625,224.696992 C367.335617,224.466804 365.781737,224.269352 364.22117,224.370795 C356.578,224.550114 348.934379,224.720018 341.290532,224.886897 L318.35854,225.384843 C303.070395,225.719272 287.78225,226.06715 272.49591,226.479583 C271.58588,226.460456 270.67585,226.420785 269.765979,226.376312 L268.40131,226.307969 C265.672289,226.171952 262.945409,226.063564 260.224949,226.407856 C259.863327,226.433826 259.50047,226.466782 259.136703,226.5038 L258.408055,226.582388 L256.945819,226.751288 L256.213397,226.831211 C254.015701,227.058657 251.816758,227.151843 249.687377,226.479583 C248.367673,226.091059 247.251402,225.320919 246.197081,224.4799 L245.714355,224.087837 L245,223.49572 C249.420146,218.833433 251.052423,212.256022 251.225762,206.008558 C251.368022,203.804568 251.372333,201.589381 251.357672,199.372976 L251.339024,196.800051 L251.33609,195.644246 C251.338672,191.792714 251.485704,187.954428 252.403023,184.181884 C252.749701,181.265334 252.91945,178.335032 253.071329,175.402968 L253.223142,172.47076 C253.354507,170.027504 253.510282,167.585798 253.782513,165.152581 L253.762596,163.834245 L253.716367,159.826234 L253.690842,158.119458 L253.690842,158.119458 L253.654071,156.412288 C253.500942,150.494704 253.04893,144.590114 251.297986,138.907493 C250.61142,136.65135 250.613623,134.349012 250.724956,132.038503 L250.787033,130.882744 L250.837583,129.983554 C250.926785,128.335175 250.984159,126.688368 250.799636,125.056915 C250.389518,123.41707 249.828746,121.806387 249.248081,120.199045 L248.631217,118.496275 L248.354709,117.719733 C247.306754,114.740449 246.420678,111.727189 246.523939,108.516556 C246.285598,104.270289 247.072846,99.5864841 250.359066,96.5739296 C253.3875,93.9280129 257.698914,93.8977516 261.508396,94.6906574 L262.002292,94.7986008 L262.24683,94.8557975 L262.24683,94.8557975 L262.730536,94.9760883 C262.81052,94.9967552 262.890176,95.017719 262.969484,95.0389614 C269.047465,97.2009886 275.45139,98.1110601 281.857153,98.754186 L283.280555,98.8931091 L283.280555,98.8931091 L284.754013,99.0302914 L286.22581,99.1632919 L289.304038,99.4192496 C292.129482,99.6497318 294.964506,99.834183 297.803415,99.6869026 C305.063338,99.2727206 312.199288,98.0207551 319.315068,96.6281202 L321.347689,96.226999 L321.347689,96.226999 L326.54089,95.192058 C333.033848,93.9070083 339.539287,92.7014207 346.136127,92.1053071 C348.357726,91.784643 350.463355,92.243086 352.550804,92.8501944 Z"/>
  </g>
</svg>
