<svg xmlns="http://www.w3.org/2000/svg" width="1244" height="431"><g fill="#FFE2A4"><path d="M781.6 0h6.7c4.4 1.5 7 5.5 9.6 9.1 8 12.2 13 26 21 38 8.2 13.2 14.6 27.6 23.6 40.3 4.2 6.2 7.5 13 12.3 18.8 3.5 4.2 6.1 9 9.6 13.3 2.5 3.4 6 5.8 9.5 8.1-.6 2.3-1.3 4.6-2.8 6.5-6 7.9-14.1 13.9-21.5 20.5-6.3 5.7-12.8 11.2-18.8 17.2-2.5 2.6-5.8 5-9.7 4.3-2.5-2.3-4-5.3-6.6-7.6-3.5-3.2-5.8-7.4-8.8-11-3.5-4.2-9-6-14.2-6.8-11.8-2-23.7 3-35.5.4-7.6 3.8-12.5 13-9.9 21.4l-4 3.8a28 28 0 00-12-2.3c-5.4 0-12.3.5-15.3-4.8-3-4-2.2-9.2 0-13.3 4.8-9 8.2-18.6 12.1-28C733.6 111 741.6 94.8 749 78c5.7-12.6 11.8-25.1 16.5-38.2 2.4-9 4.6-18.2 8.4-26.8 2.4-4.4 4.1-9.4 7.7-13m-8.4 88.1c-1.3 2.9-1.5 6.2-3.5 8.7-2 3-5.3 5.3-5.5 9.1-.4 2.9-1 5.7-1.8 8.5 4.5.7 9.1.4 13.5 1.9a28 28 0 0010 1.5 64 64 0 00-7.6-19c-2.2-3.6-1.4-7.8-1.7-11.7-1.1.3-2.5.2-3.4 1zm296-80.4c5.7-.3 10.9-3.2 16.6-3.7 3.6 5.4 2.5 12 3 18 1.2 4.6 6.9 8.2 4.4 13.5-5 1.5-10 3.3-15 4-4.4.8-9 .7-13.1 2.4-4.5 1.7-9 4.3-14 3.6-7-.5-14.8-.4-20.8 3.7-2.8 2-2.3 5.8-2.5 8.8l-.3 46c1.1 14.7 3 29.3 3.9 44 1.3 9-.4 18 .5 27 .3 3.8 2 7.3 2.4 11-.2 1.6-1.5 2.7-3 3-4 1-8.2 1.7-12.3 2.2-4 .4-8-1-12-1-4.8-.5-9.4 1.3-14.1 2.1a71 71 0 01-23 1c-13.3-1.3-26.6-2.8-40-4.3-1.6-20.2-.9-40.5-1.2-60.8-.7-11.4-.6-22.8-1.7-34.2-1.7-8.6-1-17.5-3-26l-3.2-17.3c-4.3.3-8.6.8-12.8.9-5.5 0-10.5 2.7-16 3-2.9-.2-5.7-1.2-8.5-2.3-3-1.6-5.6-4-8.8-5.4v-4.2c-4-5-.6-11.3.2-16.9.8-2.7.6-7 4.2-7.6 6.9-1.3 14-1.3 20.9-2.1 12.4-1.3 24.6 2.4 37 2.6 17-.9 34.3-.6 51-4.5 6.8-1.8 14-1.8 21-1.9 10.4-.1 20.6-3 31-2.9 9.7 0 19.4-1 29.1-1.7zm-813 10.6c2-3.3 3.8-9 8.8-7.8 5.4-.5 8.4 4.5 11 8.5 6 10 9.9 21.3 15.4 31.7 8 13.3 13.5 28 21.9 41 3.5 6 6.5 12.5 10.8 18 4.4 6.8 8 14.4 15.2 18.6-.5 5.4-5.3 8.7-8.8 12.2-9.5 8.2-19.7 15.6-29 23.9-3 2.6-6.2 6.2-10.6 5.7-1.4.2-1.8-1.4-2.6-2.2-2.6-4.3-6.7-7.6-9-12a18.3 18.3 0 00-11.3-9c-11.4-4-23.6 1.1-35.1-2-7 3-11.9 11.3-9.6 18.8-1.4 1-2.6 2.4-4.3 3-2.7-.6-5-2.2-7.9-2.2-4.3-.3-8.8 0-12.9-1.7a10.4 10.4 0 01-3.3-13.9c8-14.4 13.9-29.9 21.6-44.5 9.1-18.2 18.7-36.1 27.4-54.5 2.6-5.2 3.7-11 5.5-16.6 2.3-5 3.7-10.4 6.8-15m-7 75c-1 3.8-4.6 6-6.5 9.1-1 3.2-1.5 6.6-2.6 9.8 3.9.6 7.9.7 11.6 2 3 1.1 6 1.7 9 2-.8-5.2-2.4-10.3-4.9-15-1-2.3-2.4-4.6-2.2-7.2 0-1.8.4-3.8-.3-5.5-3.2-.7-3.1 2.9-4 4.9zm361-75c4.5-1.9 8.7-5.2 13.8-5.4 7.4-.8 14 3.4 19.9 7.3 3.7 2.6 8 4.2 12.2 6.2 8 .8 17-2 24.4 2.3 5 2.9 5.2 9.2 5.4 14.3-.5 14.3-4.8 28.5-3.3 43 .2 4.4 6.2 6.2 5.3 11-.5 12.7-2 25.3-2 38 .4 14.3 0 28.7-.1 43-1 7 1.3 14.1-.2 21.1-.3 3-1.3 5.8-3.7 7.7-6.1-2.1-12.6-3.3-19-2.6-4.4.3-8.6 1.9-13 2-4 0-8.2-.7-12.1.6-4.1 1-7.8 3.3-11.9 4.4a10.2 10.2 0 01-11.7-6.4c-2-4.6.7-9.4 1-14 1.8-22.9 1.4-45.9 1.5-68.8V81c.2-5.4-1.3-11-4-15.7a23.7 23.7 0 00-16.7-5.4c-4.2 0-8 3.1-9.1 7.1-2.5 8.8-2.3 18-2.5 27 0 9.8-2.8 19.2-3 29-.3 13.6-1.7 27.3-2.7 41-1 12.2 4.4 23.7 4.8 35.8-1 3.2-4.5 4.3-7.4 4.8-7.8.9-15.6-1-23.2-2.3-3.1-.7-5.7 1.6-8.2 3-.5-6.5-1.7-13-.4-19.4a274 274 0 006.5-49.9c1.2-27 1-54-.6-81 0-5-.1-10.3 1.7-15 3.9-6 11.5-6.9 17.9-8.1 5.5-.8 9.5-5.2 14.7-6.6 4.2-1.4 8.7-1.2 13-2 4.3-1.4 8.4-3.4 12.6-5zm-236 1.9c3.8-1.7 8-.6 11.8-.3 7 .7 14-1.6 21-.6 13.6 1.6 27.3 1.5 41 1 3.3-.1 6.5-1.9 9.8-1 4.7 1.3 10 1.6 13.7 5 8.1 7.2 18.9 10.8 25.8 19.4 4.7 6 9.6 12.3 11 20 1.2 7.4 1.7 15.6-2.5 22.1-3.3 7.5-4.6 15.8-7.2 23.6-1.6 4.2-1.4 8.8-2.2 13.2-1.9 4-4.6 8-8.4 10.4-5 1.5-10 3.6-15 5-3.5 1.9-8.2 3.7-9 8.1 1 5.4 4.7 9.6 7.5 14.1 4.9 1.9 8 6.4 12.9 8.4 2.9 1.3 6.4 3 9.6 1.4 3.6-1.9 5-6.2 5.6-10a4.4 4.4 0 00-3.7-4.7c-4.5-1-6.6 5.3-11 4.6-3.3-.2-5.2-4-4.8-7a20 20 0 0121.9-18c7.4.7 13.7 6.9 14.5 14.3 1 8.2-2.7 16-6 23.4-2.6 6.1-6.3 12-12 15.8-6 2-12.3 2-18.5 2.7a56 56 0 01-20.1 1.6c-2.6-.7-4.6-2.8-7-3.9l-.1-3c-2.8-3.4-6.1-6.6-7.8-10.8-3-6.6-5.3-14.2-11.9-18.2-1 1.7-2.5 3.3-2.4 5.3l-.5 30.4c-7.5 2.7-15.7 4-23.7 3.2-8.6-1.8-16.8-5.1-25.5-6.7-5.1-.3-9.6 3.5-14.9 3-4.8-9.7-2.8-21-1.3-31.2 3.2-16.4 2.4-33.2 3-49.8.2-15.6 2.4-31.3.8-46.9-.6-11-1.5-22-1.1-33 .1-4.5 2.5-9.2 6.8-11m63 31.3c-1.3 2-1 4.5-1.4 6.7-.4 5-3.1 9.7-2.8 14.9.4 8.3 1.8 16.6 1.5 25 0 9-.2 18.3 2.3 27 9-4.5 18.7-8 26.6-14.6 5.5-4.4 12-7.7 16.9-13 2.4-2.4 2.2-5.9 3.2-8.8 1.9-1.4 4.1-2 6.2-2.8 0-5 .4-10.2-1.5-15-1-2.7-3-5-4.9-7.2-.4-1.7-.5-3.7-2-5-2.2-2.2-5.5-2.4-8-4-6-3.8-13.4-4.3-20.3-5.2-2.5-.5-4.5-2.3-7-2.6a28 28 0 00-8.8 4.6zm673-27.2c4.6-1.4 9.1 1 13.8.6 4-.1 8.9.5 11 4.3 1.7 8.3-2.9 16.6-1 25 2.5 11.2-1.2 23.5 3.9 34.2 4.7-2 6.5-7.6 10.5-10.7 6.7-5.4 13.6-10.5 20.4-15.7 5.1-4 11.7-6.1 15.8-11.3 5.4-6.9 12.8-11.8 19.3-17.5 3.2-2.5 6.8-5.5 11-5.3 4.7 1.2 6.3 6.5 7.3 10.7 1.3 7.4 1.4 15 1.9 22.5.3 5-.3 10 1.2 14.7 1.3 4.3-.7 8.8-.5 13.3.2 9.2 1.6 18.3 3.5 27.2 1.2 4.6-1.3 9.2.4 13.7 1.2 6.9 4.6 14.3 1.3 21-1.4 3-5 3.4-8 3.8-5.7.4-11.5.5-17.2.4-2.4.2-3.7-2.2-4.4-4.2-2-7.6.5-15.6-1.2-23.2-4.8-3-10.8-.8-15.6 1-6 2-11 5.7-16.4 8.6-14.6 8-27.6 18.6-41.8 27.4-2 1.8-3.3 4.3-4.9 6.4l-3.7.3c-2-4.3-4.2-8.6-4.2-13.4-.4-39.7-1.3-79.3-2.7-119 0-5-.8-10 .3-14.8z"/><path d="M48 55.5c19.2-2.7 39-3.3 58.2-.4 2.3 5 1.8 10.7.5 16-3.6 15-3 30.7-3.5 46.2a4472 4472 0 0031.6-26.5l30-28c2-2 5-3.4 7.8-2.2 4.7 1.9 7.6 6.3 10.7 10 1.6 2.1 4 4.5 3 7.4a67.3 67.3 0 01-5.5 11c-2 3.2-6.2 3-9.2 4.6-5 2.7-8 7.5-11.4 11.8-6.8 9.1-14 17.8-21.2 26.6-2.4 2.6-3.3 7-.8 9.8 10.4 12.5 20.2 26 33.7 35.4 4.9 3.2 7.4 8.6 11 12.9 3.6 4.5 10.8 4 14 9 1.2 2.4-1.2 4.5-2.9 5.8-5.7 4-12.3 6.5-19 8.4-7.2-4.3-13-10.6-19.6-15.7-6.3-4.6-11-11-17-16-4.2-3.8-7.2-8.8-11-13.1-2-2.6-6-2.2-8-5-3.2-3.6-6.1-8-11.2-9.2l-1.5-2.4-6.6-1.2c-.4 7-.4 14.2-.3 21.3 0 3.5 1.8 6.6 2.3 10 1 5.2.2 10.4 0 15.7-3.2 1.6-6.3 3.6-10 3.3-12.4 0-24.7 1.4-37 .4a55.9 55.9 0 01-24.2-5.1c-2.4-1.5-6.1-.8-7.7-3.5-1-3.8 2.6-6.7 3.1-10.2 1.7-10.5-.7-21.1.6-31.7 2.9-10.8 7.9-21.5 7-33-2.1-12.5.7-25.2 1.2-37.8-3.4-3.4-5.6-8.2-4.4-13 1.2-4.2 2.6-8.3 3.1-12.6 4.8-.2 9.5 1 14.2 1zm681 143.8c10.2-2 20.6-2.4 31-2.9 15.3-.6 30.7-.2 45.8 2.3a25.1 25.1 0 011.6 15.9c-2.3 10-4 20.1-4.6 30.4-.3 12-.8 24-1 36 8-6 15.5-12.8 23.2-19.1 8.4-7.2 17.2-14 25.2-21.7l33.6-31.4c2.6-2.6 6.7-4.4 10.2-2.9 6 2.4 9.5 8 13.4 12.6 1.6 2.1 3.6 4 4.5 6.5.7 3.6-1.5 6.8-3 10-1.6 3-2.9 6.2-5 9-2.8 3.3-7.6 2.8-11.2 4.8-7.1 4-11.6 11.1-16.5 17.4-8.7 11.8-18.3 23-27.5 34.4-3 3.6-3.6 9.3-.3 13 12.2 14.6 23.6 30.3 38.6 42.3 4.4 3.6 9.6 6.4 13 11.1 3.6 4.7 6.3 10.4 11.3 13.7 4.8 2.3 10.6 3.4 14.2 7.7 1.4 1.7.8 4-.6 5.5-4.3 4.8-10.5 7-16.2 9.7-3.6 1.7-7.5 2.6-11.2 3.8a46.2 46.2 0 01-8.9-6.1 657.8 657.8 0 00-22.1-18.7c-5-4.3-9.2-9.6-14.1-14-4-3.7-8-7.5-11.2-11.8-2.7-3.4-4.9-7.2-8.1-10-2.5-2.2-6.4-1.6-8.5-4.3-4.6-4.9-8.3-11.6-15.5-13l-2.1-3.3-9.2-1.7c-.6 7.5-.6 15-.6 22.5 0 4.5-.5 9.1 1.5 13.3 3.5 8.3 2 17.6 1.6 26.3-3.5 1.9-7 4.8-11.3 4.4l-39 1.2c-15.1-.8-31.5-.1-45-8.2-2.8-1-6.8-.2-8.4-3.5-1.6-4.7 3.1-8.2 4-12.6 2.3-14-.6-28 .8-42 .5-3.7 2.2-7 3.2-10.5 2.6-9.3 5.9-18.6 6.4-28.3.6-6.5-1.8-12.7-1.4-19.1.7-12.3 1.8-24.6 2.7-37a18 18 0 01-5.3-19.2c1.8-4.4 3-9.1 3.5-14 6.3-.3 12.3 1.2 18.5 1.5zm461 .1c8.7-1.2 17.8-5 26.5-2 7.6 1.6 15.5-.1 23.1 1.2 5.4 4.2 4.4 12.1 3.5 18-6 .2-12-.6-18-1.4-7-1.2-13.9 1.4-20.8 1.8-.2 6.5-1.3 13-.2 19.5 11.6 4 23.9 2.8 35.9 2.6.8 3.6 2 7.2 1.6 11-.3 2.8-1.8 5.2-3.2 7.7-11.2-1.2-22.4.2-33.6.7 0 3.4-.5 7 .1 10.4 5 4 11.5 1.1 17.1.6 3.4-.2 7.8-2 10.2 1.3 2.9 4.6 2 10.8.2 15.6-1.3 4.1-6.3 1.8-9.4 2-19.3.2-38.7.8-58 1.2-6 .3-12-.3-18 .4-2.8.5-5.3-.7-7.6-1.9 6.5-7.7 3.4-18.2 5-27.3 1.1-10.8 2-22-.6-32.6-.9-3.9.5-8-1.1-11.8-1.9-4.9-3.5-10.6-.9-15.5 1.7-3.3 5.9-3.9 9.1-3a77 77 0 0039 1.5zm-95 8.1c10.2 1 20.1-2.6 30.3-2.4 2.2 3.2 1.3 7.3 1.2 11-.3 2.9-1 7-4.6 7.2-8.2.6-15.7 4.7-23.9 4.8-4.5.3-8.8-1.2-13.3-1.7.3 3.3 1.3 6.4 1.5 9.6-.3 3.7-1.1 7.3-1.3 11 4.6 0 9.3 1.3 13.9-.1 1.3-.2 3-1.2 4 0 4 4.8 3.5 12-.2 16.6-4.3-.3-8.6-.2-12.8-1-2-.5-4.5-.2-5.5 1.8-.3 2 0 4 .6 6 2 6.4 2.4 13.1 3.3 19.8 0 2.8.8 6.5-1.6 8.6a27 27 0 01-8.6 3.4c-3-.4-5.9-1.7-9-1.5-7 .3-14 2.4-20.9.3l-4.1 1-1.7-1.8 1.1-4.2c-1.5-3.4-1.4-7.2-1.5-10.9-.2-7.7-.5-15.5-1.9-23.1l1.8-3.1c-.7-6.7-1.6-13.2-2.4-19.8-.7-5 0-10.2-1.2-15.2-1.2-4.6-2.3-9.3-3.2-14 7.2-.8 14.4-.2 21.6-1.4 1.5-.2 3-.1 4.5 0 11.3 1.4 22.6-1 33.9-.9zM383 213c8-.7 15.9-3.2 23.8-1.3 7.4.8 14.6 4.2 22 2.6 6.4-.7 12.8-2.4 19.2-1.4 4.4.7 9 1 13.4 1l.2 2.1c7.5 1 14.9 2.5 21.8 5.6 6.9 3 15 3.7 20.5 9.4 9.2 9.6 15.2 21.7 22.1 33 2.9 4 .6 8.7-1.5 12.5a276.6 276.6 0 01-18.4 32.7c-2.7 4.1-5 8.8-9.3 11.6-3.3 2.5-7.6 2.9-11.3 4.7-8 4.2-15.3 9.6-23.3 13.7-5.9 3-12.9 3-18.5 6.6-5.6 3.9-6.5 11.2-8.6 17.1a53.4 53.4 0 01-26.4 33c-11.3 5-21 13.4-33.2 16.4-4.2 1.1-10 .3-11.7-4.3-.7-3.7 1.4-7.2 1.7-10.9l4.4-45c1.5-21.4 0-42.8-.6-64.1-.4-7.5 0-15-1.7-22.4-2.4-10.4 0-21.2-1.8-31.7-.4-3-1.5-5.9-1.7-9 0-3.8 1.8-7.5 3.2-11 5.3-.6 10.6-.2 15.8-1m59 35.1c-1.9 8 .4 16 .3 24l-.6 45.3c1.4.7 2.6 1.8 4.2 1.9 5.7-2.4 9.8-8 16.1-8.7 7.7-.8 15.4-1 23-2.1-2.3-6.7 5.4-9.6 7.4-15 1.2-3.4 3.9-5.9 5.9-8.9 1.9-4.1 1.7-9 .3-13.2-1.3-3.4.9-7.4-1.6-10.4a44.1 44.1 0 00-9-9c-3.8-2.9-8.7-3.2-12.9-5.2-3.2-1.3-6.8-3.7-10.2-1.7-5.5 2.7-11.4-.7-17-1.4-2.8-.6-5.5 1.7-6 4.4zM36.8 220.4c21-1.6 42.2-2.3 63 1.2 4.2 8.9.5 18.5-1 27.5-3 17.5-2.3 35.3-3 53 13.9-11.2 27.3-22.9 41-34.3 12.8-11.8 25.5-23.7 38.2-35.7 2.7-2.6 6.6-5 10.5-3.6 5.7 2.1 9.3 7.4 13 12 1.8 2.3 4.2 4.5 4.9 7.5.2 3.6-2 6.8-3.5 10-1.7 3-2.8 6.3-5.4 8.7-3.2 2.3-7.3 2.2-10.6 4.2-5.6 3.3-9.5 8.7-13.3 13.8a734.4 734.4 0 01-27 34c-2 2.4-4.3 5-4.5 8.3-.4 2.9 1.2 5.6 3 7.7 11.7 14 22.5 28.9 36.9 40.3 4.2 3.4 9 6.1 12.3 10.5 3.8 4.6 6.3 10.4 11.4 13.6 4.2 2.2 9 3.2 12.7 6.4 1.2 1 2.3 2.8 1.8 4.5-1.3 3-4.1 4.9-6.8 6.6-6.7 3.8-14 6.8-21.4 8.7-3-1.8-5.9-3.7-8.5-6A667 667 0 00160 402c-5.3-4.4-9.5-9.9-14.6-14.4-3.8-3.5-7.6-7.1-10.7-11.2-2.4-3-4.4-6.3-7-9-2.8-3.3-7.9-2.9-10.5-6.4-4-4.7-7.9-10.3-14.3-11.9l-2-3-9-1.7c-.6 9.2-.5 18.5-.5 27.7 0 3.7 1.5 7.1 2.5 10.6 2 7.4.9 15 .5 22.5-3.4 1.8-6.8 3.6-10.6 4.3-8.5 1.6-17.2.2-25.8-.2-7.5-.4-15.2-.4-22.3-3-7.7-2.9-14.4-8-19.5-14.5C5.8 378.6 1.8 361.5 0 345v-4.8c1.3-10 6.1-19.1 7-29.2 1.2-7.7-1.6-15.3-1-23 .6-11.6 1.6-23.1 2.5-34.7-2.3-2.7-5-5.6-5.6-9.2-2-8.2 3.5-15.4 4-23.4 4.4 0 9 .3 13.4 1 5.6 1 11-1 16.6-1.3zm555.4 8c4-1 7.7-3.1 11.9-3.8 5.5-.8 11.8 3.5 11.6 9.4-.6 3.7-2 7.3-2.1 11.1-1.9 26.3-1 52.6-1.2 78.9.4 7.7-1.3 15.9 2.4 23 1.6 4.4 6.7 5.3 10.6 6.5 4.7.8 10.3 1.6 14.3-1.7 2.6-2.1 3.2-5.6 3.8-8.8 1.2-5.9 1-12 1.2-18 .1-8.4 2.8-16.6 3-25 .2-8.4 1-16.6 1.8-25 .6-6.6 1.9-13.4.2-20-1.6-6.8-3.4-13.5-4.5-20.4a10 10 0 017-4c8-1.1 16 .6 23.9 1.8 3 .6 5.7-1.3 8.3-2.5.6 5.7 1.7 11.5.3 17.1a199.4 199.4 0 00-6.4 42 565 565 0 000 61c.4 6.7 1.2 13.5-.5 20-.9 3.2-4.2 4.7-7 5.9-6.1 2.5-13.1 1.7-19 5a35 35 0 01-16 4.4c-5.4 0-10.3 2.6-15.4 4.2-5.5 1.8-10.5 5.3-16.5 5.2-12.3.3-21.2-10.2-33-11.7-7.4-.2-15.3 1.6-22.2-1.8-6-2.9-5.6-10.5-5.2-16.1a111 111 0 00.6-34c-1.5-5.5-3-11.2-2.5-17 .8-10 2-20 1.4-30 0-12.4.3-24.8.4-37.1a39 39 0 011-16.1l3.1-2.3c8.4 2.5 17.3 3 25.9 1.1 6.2-1.5 12.7.5 18.8-1.4z"/><path d="M930.9 266.9c2-2.2 5.2-4.3 8.3-3.2 2 2 3.5 4.6 5.7 6.5 4.7 4.3 7 11.3 13.5 13.4 11.9 5 24.5-1.5 36.6 1 6.5-3.2 10.6-11.3 8.2-18.4a319 319 0 013.8-3.4c5.6 3 12 1.3 18 2.3 4.3.6 7 4.9 7.4 8.9-.2 4.4-2.8 8-4.5 12-5.3 12.3-9.8 25-15.4 37.4l-17 38c-3.8 9-8.2 18-9.9 27.7a81.1 81.1 0 01-10.5 25 9.2 9.2 0 01-11.8-2.4c-9-10.5-13.2-23.9-20.6-35.3-6.7-10.2-12-21.2-18.5-31.5-5.3-7.1-9.2-15.2-15-22-4.4-6.2-8.3-13.3-15.5-17 .4-1.6.5-3.4 1.5-4.7 5-7.2 12.1-12.6 18.6-18.4 5.7-5.3 11.7-10.3 17-16m38.8 46.8c1.4 5.6 3.8 11 6.7 16 2 3.3 1.4 7.1 1.9 10.6 1.2-.7 2.8-1.3 3-3 .7-3.2 2.2-6.1 4.5-8.5 3.1-3.3 2.6-8.2 3.9-12.2-6.8 0-13.2-2.6-20-2.9zm-662.3-33.4l3.6-3.7c5.5 2.3 11.3.8 17 1 6.2-.1 10.6 7.2 8.4 12.8-2.3 5.8-4.7 11.7-6.5 17.7-8.9 28.7-20.7 56.2-30.1 84.7-2.4 10-3.4 20.6-8 30-1.3 3.2-2.5 7.8-6.8 7.7-4.8 1.1-8.3-3-11-6.3-7.2-9.1-12.2-19.7-18.8-29.2-7.5-10-13.7-20.8-20.9-30.9-6-7-10.6-15.3-17.1-22-4.7-5.9-9-12.4-16.1-15.6.2-1.7.2-3.6 1.3-5 4.7-7.5 11.4-13.3 17.5-19.6 5.3-5.4 10.7-10.6 15.6-16.4 1.9-2.3 4.5-4.2 7.7-4 2.5 1.7 4 4.5 6.4 6.3 5 4 7.8 10.9 14.5 12.5 12 4.2 24.1-3 36.3-1.3 6.3-3.5 9.9-11.9 7-18.7M277 329.4a56 56 0 007.4 15.3c2.2 2.9 1.9 6.6 2.5 10 3.1.7 2.8-2.8 3.5-4.8.7-3.6 3.6-6.1 5.2-9.3.7-3.2.7-6.5 1.3-9.7-6.7.6-13.2-1.6-19.9-1.5zm934.3-20.6c6.3-1.7 13-.6 19.4-2.7 1 2.9 1 5.9 1.3 8.9.6 2.4 1.5 4.8 1.9 7.4-5.2 1.7-10.8 1.7-16 3.4-4.2 1.4-9.4-1.2-13 2.1-1 5.7-.6 11.5-1 17.1-1 12.7 1.3 25.3.4 38-.3 3.3.5 6.7.7 10-2.8 2.6-7 2-10.5 1.6-5.2-1-10.2 1.3-15.4.6-7-.8-13.9-2.3-20.8-3.5-.4-22 2-44.3-1.6-66.2a74 74 0 00-10.7 1c-3.7.8-6.6-2.2-9.5-4l.1-2-2.3-2.6 3.5-4.3c0-1.8-.6-3.7.5-5.2 7.7-1.7 15.7-1 23.3.8 7.3.8 14.8.7 22.2 0 8.4-1.5 17-.6 25.5-1.6l2 1.2zm-151 25.6c5.4-9 10-18.8 18.6-25.1 6 1.7 12.3 1.9 18.1 3.9 5 1.9 10.8-.4 15.4 2.6 2.7 1.2 4 4.2 3.8 7a45 45 0 01-4.4 16.7c-6.2-2.6-11.8-7.5-18.8-7.4-2.4-.2-4.7.4-7 1.2 4.1 7 7.8 14.4 13.8 20 7.7 6.3 16 12 23.6 18.5.7 3.1 1.8 6.2 4.1 8.5-.9 4.5-4.7 7.4-7.2 11-5 7.3-9.4 15.1-15.2 21.8-1.5 1.8-4 1.3-6 1.5-8 0-16.3 1.4-23.8-1.9-4-1.8-8.5-.9-12.5-2.5-5-1.9-9.5-5-14.7-6.6-2-.7-5.1-1.8-4.7-4.5.7-3.8.7-8.3 3.3-11.4 3-2.8 6.1 1 9.2 1.5 3.3.6 5 4 8 4.9 4-1 8.1-1.6 12.2-1.9 3.5-.8 7-1.4 10.6-1.3a23.1 23.1 0 00-6.7-9.1c-6.2-3.9-6.5-12.2-12.1-16.6-6-5-12.5-11-13.4-19.3-.9-4.8 3.7-7.8 5.8-11.5z"/></g></svg>