<svg xmlns="http://www.w3.org/2000/svg" width="480" height="480"><g fill="none" fill-rule="evenodd"><path fill="#493B69" d="M0 0h480v480H0z"/><path fill="#FFE2A4" fill-rule="nonzero" d="M157.5 254c2.7 1.26 5.57 1.7 8.46 2.03l1.09.12 1.09.11 1.09.12c2.17.25 4.33.58 6.42 1.28.82.2 1.64.42 2.46.64l3.27.89c3 .8 6.02 1.55 9.1 1.93 1.13.14 2.28.08 3.42-.02l1.62-.15.53-.04c1.7-.13 3.38-.1 4.98.59l.26.11 1.06.48 1.34.59.5.23.5.23c1.91.92 3.7 2.05 4.83 3.9 1.94 3.54 1.55 7.74.68 11.53a82.2 82.2 0 00-.63 3.3l-.41 2.33-.2 1.12-.15.74c-.8 4.07-1.94 8.03-4.7 11.25-4.6-2.22-9.09-4.64-13.64-6.96a26.66 26.66 0 00-22.37-1.97c.03 1.7.76 3.24 1.7 4.64 1 1.57 1.98 3.16 2.94 4.75l1.72 2.84.66 1.09.67 1.08c3.35 5.42 6.97 10.66 11.83 14.86a347.4 347.4 0 009.78 7.66l2.83 2.14 4.25 3.2c5.66 4.29 11.29 8.61 16.62 13.3.7 1.08 1.02 2.34 1.3 3.62l.18.77c.28 1.29.59 2.57 1.27 3.7.56.92 1.29 1.73 2.03 2.53l.56.6.56.6-.16.99-.1.75-.07.5a6.97 6.97 0 01-1.17 3.3c-.9 1.2-1.85 2.37-2.8 3.53l-.96 1.16-1.45 1.73-.9 1.1a57.5 57.5 0 00-5.69 8.03l-2.42 3.68-2.4 3.7-1.37 2.1A189.04 189.04 0 01198 399.8l-.82 1.14-.4.53-.26.35-.28.35-.14.18-.3.34c-1.32 1.54-2.89 2.77-5.04 2.83h-.23c-6.5.07-13 .33-19.48.47-5.75.05-11.65-.22-17.07-2.25l-.5-.2c-.4-.14-.79-.3-1.18-.46l-1.16-.5c-1.29-.54-2.6-1.06-3.98-1.28a25.7 25.7 0 00-3.46-.27l-1.38-.03-.76-.02c-1.66-.06-3.3-.2-4.88-.73a81.45 81.45 0 01-11.95-5.22l-1.45-.74-2.18-1.13-1.45-.74-.73-.37c-1.35-.7-2.8-1.17-4.25-1.61l-1.36-.41-.76-.24c-1.26-.4-2.5-.87-3.66-1.53l-.35-.2a5.23 5.23 0 01-2.43-5.54c.6-3.35 1.23-6.7 1.99-10.02l.33-1.42c.63-2.84 2.89-5.33 5.85-5.72 1.5-.37 2.7.3 3.82 1.15l.3.24.3.24.62.5.3.23c.4.32.82.6 1.25.83.6.18 1.24.28 1.88.35l.96.11a8.8 8.8 0 013.1.77 24.2 24.2 0 013.15 2.56l.86.8a22.59 22.59 0 003.64 2.88c.86.5 1.78.34 2.7.05l.32-.1.32-.11c.37-.13.74-.26 1.1-.34a27.03 27.03 0 019.05-1.63c.5-.04 1-.06 1.51-.07l1.53-.03h.62c1.83-.06 3.65-.24 5.3-1.16 2.16-1.07 4.48-1.14 6.83-1.03l.67.04 1.67.1c.67.04 1.33.07 2 .07l-.3-1.04a14.38 14.38 0 00-2.05-4.57c-.35-.46-.7-.94-1.03-1.42l-.79-1.14-.39-.55c-1.25-1.73-2.6-3.37-4.46-4.48-.7-.74-1.49-1.38-2.28-2.01l-.95-.75c-.8-.63-1.57-1.28-2.26-2.02a57.86 57.86 0 01-3.38-6.13l-1.15-2.36a53.47 53.47 0 00-3.86-6.87 25.9 25.9 0 00-4.55-4.62l-.72-.6-.82-.67c-1.24-1-2.47-2.02-3.6-3.14l-.63-.6-.63-.6a73.82 73.82 0 01-1.55-1.56l-.6-.64-1.2-1.3-.57-.67c-3.63-4.25-6.6-9.06-7.78-14.58l-.18-.97-.12-.7c-.38-2.44-.52-5 .65-7.23a24.73 24.73 0 013.13-4.43l1.05-1.25a36.8 36.8 0 002.01-2.57c1.52-2.3 2.95-4.67 4.34-7.06l.83-1.44.83-1.44 1.66-2.88.41-.72.84-1.43.38-.66.78-1.31c2.88-4.8 5.97-9.46 9.78-13.6a55.47 55.47 0 018.58-7.8zm217.8-4c1.56 2.34 1.84 4.97 1.86 7.65v1.87l-.02.62c-.01 1.03-.02 2.06.04 3.07.13.44.3.88.5 1.32l.18.37.18.38.66 1.3.18.38.18.38.09.19.16.38c.7 1.64 1.05 3.32.15 5.14a43.89 43.89 0 01-14.15 2.93c-1.55 0-3.01.41-4.46.93l-.61.23-1.4.54-.55.2c-1.81.67-3.64 1.2-5.61.95l-.92-.11-.62-.07-.78-.08-.78-.07c-3.33-.26-6.73-.13-9.68 1.6-1.13.62-1.5 1.75-1.65 2.95l-.04.33-.03.36-.07 1.07-.03.34-.03.33-.54 12.12c-.3 6.74-.59 13.47-.79 20.21.1 2.52.23 5.03.35 7.55l.39 7.54c.33 6.7.64 13.41.72 20.13a84.97 84.97 0 01-.2 3.69l-.14 2.03-.06.98c-.22 3.4-.3 6.81.5 10.16l.08.25.07.26.1.4.07.28.05.28.06.29.02.14.04.28.01.13.03.28.01.14.01.28c.05 1.66-.48 3.2-2.44 3.5l-.8.17-.8.16c-3.91.74-7.94 1.14-11.8.01-2.52-.7-5.02-.44-7.52 0l-.68.12-2.23.43c-1.11.2-2.23.4-3.35.49-4.58.55-9.13-.01-13.64-.79l-1.13-.2-2.86-.52c-1.17-.22-2.33-.43-3.5-.62-5.39-1.01-10.82-1.83-16.19-2.95-.43-8.26-.2-16.52.1-24.78l.18-4.95.12-3.3c.16-4.41.28-8.82.28-13.22-.03-1.6-.03-3.2-.02-4.8l.04-4.8c.03-4.47 0-8.94-.56-13.4a54.55 54.55 0 01-.2-4.58l-.03-2.3a45.47 45.47 0 00-.33-5.33l-.11-.76c-.37-2.41-.69-4.83-1-7.25l-.68-5.45-1.52.02-3.03.05-3.03.02c-1.44-.02-2.84.25-4.24.56l-1.57.37c-1.4.32-2.79.59-4.22.56-3.18-.41-5.86-2.1-8.33-4.02l-.55-.44-.54-.43-.8-.66-.54-.44c-.24-.44-.4-.92-.53-1.4l-.2-.73a4.75 4.75 0 00-.97-2 5.61 5.61 0 00-.28-.4l-.2-.28-.33-.4c-.45-.59-.85-1.2-.8-1.95a15.96 15.96 0 012.5-3.39l.86-.94c.48-.52.95-1.05 1.38-1.6l-.08-.44-.27-1.43-.06-.33-.06-.33-.05-.33c-.25-1.83-.14-3.66 1.62-4.65 2.31-.67 4.7-.81 7.1-.86l1.04-.02 1.55-.02c1.2-.02 2.4-.06 3.59-.17 3.84-.32 7.61.19 11.37.89l1.07.2 3.84.76c.96.18 1.92.36 2.88.52 2.98.67 6.01.76 9.05.77H287.76c1 0 2.02 0 3.03.03 7.67.22 15.4-.01 22.97-1.46 3.34-.67 6.72-.66 10.1-.57l1.45.03c3.15.09 6.3.15 9.42-.3.84-.03 1.7-.12 2.57-.23l1.05-.12.79-.09.52-.05.53-.05c2.8-.24 5.58-.12 7.91 1.7 2.67-1.4 5.57-1.64 8.52-1.66h1.06l1.84.01c1.35 0 2.69 0 4-.13 1.76.03 3.45-.34 5.14-.76l1.51-.39c1.69-.43 3.38-.8 5.14-.8zM225.99 109.99v.38l-.01.76v.76l.02 3.48v2.35l-.02.8c-.13 4.12-.68 8.19-2.83 11.79-1.03 1-2.38 1.4-3.77 1.67l-.46.09-.46.08-.49.08c-.48.07-.96.16-1.42.26-1.24.24-2.5.42-3.76.58l-1.38.17-.85.11c-2.57.35-5.1.8-7.46 1.93-3.68 1.66-7.64 2.35-11.61 2.84l-1.04.12-3.23.36-1.74.1-.86.06c-3.44.17-6.9.16-10.2-.93-.44-.1-.89-.22-1.34-.35l-.96-.27c-1.55-.45-3.11-.83-4.69-.46-.97.14-1.16 1.05-1.16 1.9v.27l.02.26.01.2c.07 1.43.4 2.84.76 4.23l.33 1.26c.51 1.95.98 3.91.82 5.95-.12 1.63-.4 3.25-.7 4.86l-.34 1.8-.16.84a24.5 24.5 0 00-.4 7.6c.8.05 1.6.08 2.39.1l1.6.04c1.33.04 2.66.09 3.99.22l1.7.2.92.1.62.08.59.06c2.27.22 4.55.24 6.68-.73l.44-.15.76-.26.47-.16.32-.1.32-.1.33-.1c1.57-.4 3.18-.47 4.34.88 5.28 6.7 5.13 17.25-.82 23.5-2.11-.26-4.23-.32-6.34-.33h-1.6c-1.58 0-3.16 0-4.75-.06-.94-.03-1.89-.23-2.83-.48l-.52-.14-1.03-.28-.45-.11c-1.73-.44-3.46-.7-5.18.04l-.4.18-.27.13-.27.14-.27.15-.27.15c-1.02.63-1.87 1.49-1.74 2.77-.34 2.6.17 5.08.86 7.53l.2.7.2.7.37 1.18c.44 1.46.87 2.91 1.15 4.39.3 2.2.6 4.41.93 6.62l.64 4.4c.52 3.68 1.03 7.36 1.43 11.05l.01.43.03.88.07 1.6.02.7V233.2l-.02.45c-.12 2.72-.78 5.32-3.22 6.92a75.05 75.05 0 01-11.63 4.42c-1.45 0-2.81-.42-4.17-.9l-1.11-.4c-1.12-.4-2.24-.76-3.4-.9-3.8-.33-7.61.02-11.43.49l-1.27.16-2.81.36-.94.1-.94.12c-5.3.6-10.6.83-15.8-.84-1-.16-1.96.07-2.92.37l-.86.28c-.96.3-1.92.57-2.91.45-1.58-.4-2.6-2.17-1.98-3.7.06-.57.23-1.16.42-1.75l.25-.8.12-.4.1-.4c.28-1.11.32-2.2-.47-3.2a7.2 7.2 0 01-1.08-3.86l-.02-.48-.04-1.45a431.82 431.82 0 01-.24-5.53l-.13-3.61-.13-3.62c-.3-8.84-.71-17.69-2.22-26.42-.36-1.2 0-2.27.51-3.3l.17-.33.17-.32.23-.42.19-.35.18-.35c.47-.95.81-1.92.6-3.01-.67-6.46-1.47-12.9-2.3-19.33l-1.08-8.27c-.32-2.3-.37-4.64-.37-6.97v-2.54c0-3.38-.08-6.76-.95-10.07-1.82-7.02-3.5-14.09-4.74-21.24 5.08-.58 10.18-.74 15.29-.84l3.83-.08 5.1-.13c1.5 0 2.95-.26 4.4-.55l1.64-.33c1.1-.21 2.19-.41 3.3-.5 8.62 1.47 17.3 1.27 25.97.69l1.68-.12 1.68-.12 1.68-.13 4.65-.37c5.26-.42 10.52-.8 15.77-.85.87.02 1.74.06 2.62.11l2.62.18c2.8.18 5.6.28 8.38-.26l1-.18 2.03-.35c8.43-1.45 16.93-2.65 25.5-2.73a3.76 3.76 0 013.84 3.98zm126.57-17.14l.63.19 1.07.32c1.64.5 3.28 1 4.98 1.17 4.95.43 9.92.51 14.89.51h2.48l3.9-.01h4l.66.03.69.03.46.02.22.02.44.03c1.55.13 3.08.47 4.21 1.6 2.77 3.09 3.88 7.12 4.52 11.14l.1.7.06.36.1.7.04.36v.5c-.43 2.86-.36 5.76-.8 8.6-.19 1.37-1.27 2.75-2.78 2.52-5.08.04-10.13-.43-15.16-1.02l-2.02-.24-5.34-.66c-2.14-.26-4.28-.51-6.42-.72-3.1-.1-6.13.32-9.15.85l-1.21.22-1.29.23c-2.14.4-4.28.78-6.44 1.01-.55.11-1.13.17-1.7.22l-1.16.09c-1.35.1-2.69.28-3.84.96a70.08 70.08 0 00-.55 7.5l-.09 2.92c-.06 2.1-.14 4.18-.35 6.27v.3l-.03.6-.08 1.84-.03.62-.02.57v.58c-.02 2.2.22 4.38 1.4 6.27a36.3 36.3 0 006.5 1.97l1.21.26 1.22.27c1.01.22 2.02.44 3.02.7 7.85 1.15 15.76 1.14 23.67.96l3.1-.08 3.1-.08 2.06-.05a283 283 0 017.22-.08l.16.5.32 1.03c1.24 4.08 2.2 8.3 2.11 12.59-.28 4.39-1.83 8.85-4.82 12.14-1.98.38-3.99.3-6 .16l-1.39-.11-.92-.07c-.77-.05-1.54-.1-2.3-.1-4.62-.4-9.23-.14-13.83.19l-2.59.19c-1.73.12-3.45.24-5.18.33-1.55.1-3.1.18-4.65.25l-3.5.15c-2.72.12-5.43.28-8.13.62-.06 3.78-.25 7.57-.25 11.36l.02.63.01.33c.07 1.15.31 2.33 1.3 3.03l.15.1c4.2 2.86 9.57 2.8 14.43 1.76l.6-.14.58-.14.58-.15a29.9 29.9 0 015.66-.91l1.91-.16c1.7-.14 3.4-.32 5.07-.7l1.2-.24c1.52-.3 3.1-.52 4.59.07a9.64 9.64 0 015.83 7.3c1.03 6.07.67 12.56-2 18.21l-.15.29-.15.29c-.55 1.02-1.27 2.02-2.45 2.27l-.16.03c-1.84.36-3.68.19-5.51-.07l-.85-.13-.84-.12c-1.55-.23-3.1-.43-4.67-.33l-22.93.52-22.93.5c-15.29.33-30.58.68-45.86 1.09a98.2 98.2 0 01-2.73-.1l-1.37-.07a46.49 46.49 0 00-8.18.1c-.36.02-.72.06-1.08.1l-.73.07-1.46.17-.74.08c-2.2.23-4.4.32-6.52-.35a10.38 10.38 0 01-3.5-2l-.48-.4-.71-.58c4.42-4.67 6.05-11.24 6.23-17.5.14-2.2.14-4.41.13-6.63l-.02-2.57v-1.16c0-3.85.15-7.69 1.06-11.46.35-2.91.52-5.84.67-8.78l.15-2.93c.13-2.44.29-4.88.56-7.32l-.02-1.32-.04-4-.03-1.71-.04-1.7c-.15-5.93-.6-11.83-2.35-17.51-.69-2.26-.69-4.56-.58-6.87l.07-1.16.05-.9c.09-1.64.14-3.3-.04-4.92a50.33 50.33 0 00-1.55-4.86l-.62-1.7-.28-.78c-1.04-2.98-1.93-6-1.83-9.2-.23-4.25.55-8.93 3.84-11.95 3.03-2.64 7.34-2.67 11.15-1.88l.5.1.24.07.48.12.24.06c6.08 2.16 12.48 3.07 18.89 3.71l1.42.14 1.47.14 1.48.13 3.07.26c2.83.23 5.66.41 8.5.27 7.26-.42 14.4-1.67 21.52-3.06l2.03-.4 5.2-1.04c6.48-1.28 12.99-2.49 19.59-3.08 2.22-.33 4.32.13 6.41.74z"/></g></svg>